<svg width="277" height="58" viewBox="0 0 277 58" fill="none" xmlns="http://www.w3.org/2000/svg">
<path d="M51.424 34.554C51.424 35.73 51.571 36.8897 51.865 38.033C52.1917 39.1437 52.6653 40.14 53.286 41.022C53.9393 41.904 54.756 42.6063 55.736 43.129C56.7487 43.6517 57.9247 43.913 59.264 43.913C60.6687 43.913 61.861 43.6353 62.841 43.08C63.821 42.5247 64.6213 41.806 65.242 40.924C65.8627 40.0093 66.3037 38.9803 66.565 37.837C66.859 36.6937 67.006 35.534 67.006 34.358C67.006 33.1167 66.859 31.9243 66.565 30.781C66.271 29.605 65.7973 28.576 65.144 27.694C64.5233 26.812 63.7067 26.1097 62.694 25.587C61.6813 25.0317 60.4563 24.754 59.019 24.754C57.6143 24.754 56.422 25.0317 55.442 25.587C54.462 26.1423 53.678 26.8773 53.09 27.792C52.502 28.7067 52.0773 29.752 51.816 30.928C51.5547 32.104 51.424 33.3127 51.424 34.554ZM71.024 47H66.859V43.57H66.761C66.075 44.9747 64.997 45.9873 63.527 46.608C62.057 47.2287 60.44 47.539 58.676 47.539C56.716 47.539 55.001 47.1797 53.531 46.461C52.0937 45.7423 50.885 44.7787 49.905 43.57C48.9577 42.3613 48.239 40.9567 47.749 39.356C47.259 37.7553 47.014 36.0567 47.014 34.26C47.014 32.4633 47.2427 30.7647 47.7 29.164C48.19 27.5633 48.9087 26.175 49.856 24.999C50.836 23.7903 52.0447 22.843 53.482 22.157C54.952 21.4383 56.6507 21.079 58.578 21.079C59.2313 21.079 59.9337 21.1443 60.685 21.275C61.4363 21.4057 62.1877 21.6343 62.939 21.961C63.6903 22.255 64.3927 22.6633 65.046 23.186C65.732 23.676 66.3037 24.2967 66.761 25.048H66.859V12.014H71.024V47ZM95.0229 31.908C94.9576 30.928 94.7289 29.997 94.3369 29.115C93.9776 28.233 93.4712 27.4817 92.8179 26.861C92.1972 26.2077 91.4459 25.7013 90.5639 25.342C89.7146 24.95 88.7672 24.754 87.7219 24.754C86.6439 24.754 85.6639 24.95 84.7819 25.342C83.9326 25.7013 83.1976 26.2077 82.5769 26.861C81.9562 27.5143 81.4662 28.282 81.1069 29.164C80.7476 30.0133 80.5352 30.928 80.4699 31.908H95.0229ZM99.0409 38.964C98.4856 41.806 97.2606 43.9457 95.3659 45.383C93.4712 46.8203 91.0866 47.539 88.2119 47.539C86.1866 47.539 84.4226 47.2123 82.9199 46.559C81.4499 45.9057 80.2086 44.991 79.1959 43.815C78.1832 42.639 77.4156 41.2343 76.8929 39.601C76.4029 37.9677 76.1252 36.1873 76.0599 34.26C76.0599 32.3327 76.3539 30.5687 76.9419 28.968C77.5299 27.3673 78.3466 25.979 79.3919 24.803C80.4699 23.627 81.7276 22.7123 83.1649 22.059C84.6349 21.4057 86.2356 21.079 87.9669 21.079C90.2209 21.079 92.0829 21.5527 93.5529 22.5C95.0556 23.4147 96.2479 24.5907 97.1299 26.028C98.0446 27.4653 98.6652 29.0333 98.9919 30.732C99.3512 32.4307 99.4982 34.0477 99.4329 35.583H80.4699C80.4372 36.6937 80.5679 37.7553 80.8619 38.768C81.1559 39.748 81.6296 40.63 82.2829 41.414C82.9362 42.1653 83.7692 42.7697 84.7819 43.227C85.7946 43.6843 86.9869 43.913 88.3589 43.913C90.1229 43.913 91.5602 43.5047 92.6709 42.688C93.8142 41.8713 94.5656 40.63 94.9249 38.964H99.0409ZM106.298 39.013C106.331 39.9277 106.543 40.7117 106.935 41.365C107.327 41.9857 107.834 42.492 108.454 42.884C109.108 43.2433 109.826 43.5047 110.61 43.668C111.427 43.8313 112.26 43.913 113.109 43.913C113.763 43.913 114.449 43.864 115.167 43.766C115.886 43.668 116.539 43.4883 117.127 43.227C117.748 42.9657 118.254 42.59 118.646 42.1C119.038 41.5773 119.234 40.924 119.234 40.14C119.234 39.062 118.826 38.2453 118.009 37.69C117.193 37.1347 116.164 36.6937 114.922 36.367C113.714 36.0077 112.391 35.6973 110.953 35.436C109.516 35.142 108.177 34.75 106.935 34.26C105.727 33.7373 104.714 33.0187 103.897 32.104C103.081 31.1893 102.672 29.9153 102.672 28.282C102.672 27.008 102.95 25.9137 103.505 24.999C104.093 24.0843 104.828 23.3493 105.71 22.794C106.625 22.206 107.638 21.7813 108.748 21.52C109.892 21.226 111.019 21.079 112.129 21.079C113.567 21.079 114.89 21.2097 116.098 21.471C117.307 21.6997 118.369 22.1243 119.283 22.745C120.231 23.333 120.982 24.1497 121.537 25.195C122.093 26.2077 122.419 27.4817 122.517 29.017H118.352C118.287 28.2003 118.075 27.5307 117.715 27.008C117.356 26.4527 116.899 26.0117 116.343 25.685C115.788 25.3583 115.167 25.1297 114.481 24.999C113.828 24.8357 113.158 24.754 112.472 24.754C111.852 24.754 111.215 24.803 110.561 24.901C109.941 24.999 109.369 25.1787 108.846 25.44C108.324 25.6687 107.899 25.9953 107.572 26.42C107.246 26.812 107.082 27.3347 107.082 27.988C107.082 28.7067 107.327 29.311 107.817 29.801C108.34 30.2583 108.993 30.6503 109.777 30.977C110.561 31.271 111.443 31.5323 112.423 31.761C113.403 31.957 114.383 32.1693 115.363 32.398C116.409 32.6267 117.421 32.9043 118.401 33.231C119.414 33.5577 120.296 33.9987 121.047 34.554C121.831 35.0767 122.452 35.7463 122.909 36.563C123.399 37.3797 123.644 38.3923 123.644 39.601C123.644 41.1363 123.318 42.4103 122.664 43.423C122.044 44.4357 121.211 45.2523 120.165 45.873C119.153 46.4937 117.993 46.9183 116.686 47.147C115.412 47.4083 114.138 47.539 112.864 47.539C111.46 47.539 110.12 47.392 108.846 47.098C107.572 46.804 106.445 46.3303 105.465 45.677C104.485 44.991 103.701 44.109 103.113 43.031C102.525 41.9203 102.199 40.581 102.133 39.013H106.298ZM132.66 17.11H128.495V12.014H132.66V17.11ZM128.495 21.667H132.66V47H128.495V21.667ZM160.967 44.844C160.967 48.9927 160.019 52.096 158.125 54.154C156.23 56.212 153.257 57.241 149.207 57.241C148.031 57.241 146.822 57.1103 145.581 56.849C144.372 56.5877 143.261 56.163 142.249 55.575C141.269 54.987 140.452 54.2193 139.799 53.272C139.145 52.3247 138.786 51.165 138.721 49.793H142.886C142.918 50.5443 143.147 51.1813 143.572 51.704C144.029 52.2267 144.568 52.6513 145.189 52.978C145.842 53.3047 146.544 53.5333 147.296 53.664C148.047 53.8273 148.766 53.909 149.452 53.909C150.824 53.909 151.983 53.664 152.931 53.174C153.878 52.7167 154.662 52.0633 155.283 51.214C155.903 50.3973 156.344 49.401 156.606 48.225C156.9 47.049 157.047 45.7587 157.047 44.354V42.688H156.949C156.23 44.256 155.136 45.4157 153.666 46.167C152.228 46.8857 150.693 47.245 149.06 47.245C147.165 47.245 145.515 46.902 144.111 46.216C142.706 45.53 141.53 44.6153 140.583 43.472C139.635 42.296 138.917 40.9403 138.427 39.405C137.969 37.837 137.741 36.1873 137.741 34.456C137.741 32.9533 137.937 31.418 138.329 29.85C138.721 28.2493 139.374 26.812 140.289 25.538C141.203 24.2313 142.412 23.1697 143.915 22.353C145.417 21.5037 147.263 21.079 149.452 21.079C151.052 21.079 152.522 21.4383 153.862 22.157C155.201 22.843 156.246 23.8883 156.998 25.293H157.047V21.667H160.967V44.844ZM149.305 43.619C150.677 43.619 151.836 43.3413 152.784 42.786C153.764 42.198 154.548 41.4467 155.136 40.532C155.724 39.5847 156.148 38.523 156.41 37.347C156.704 36.171 156.851 34.995 156.851 33.819C156.851 32.7083 156.72 31.614 156.459 30.536C156.197 29.458 155.773 28.4943 155.185 27.645C154.629 26.763 153.894 26.0607 152.98 25.538C152.065 25.0153 150.954 24.754 149.648 24.754C148.308 24.754 147.165 25.0153 146.218 25.538C145.27 26.028 144.486 26.6977 143.866 27.547C143.278 28.3963 142.837 29.3763 142.543 30.487C142.281 31.5977 142.151 32.7573 142.151 33.966C142.151 35.1093 142.265 36.2527 142.494 37.396C142.722 38.5393 143.114 39.5847 143.67 40.532C144.225 41.4467 144.96 42.198 145.875 42.786C146.789 43.3413 147.933 43.619 149.305 43.619ZM167.249 21.667H171.169V25.685H171.267C172.999 22.6143 175.743 21.079 179.499 21.079C181.165 21.079 182.554 21.3077 183.664 21.765C184.775 22.2223 185.673 22.8593 186.359 23.676C187.045 24.4927 187.519 25.4727 187.78 26.616C188.074 27.7267 188.221 28.968 188.221 30.34V47H184.056V29.85C184.056 28.282 183.599 27.0407 182.684 26.126C181.77 25.2113 180.512 24.754 178.911 24.754C177.637 24.754 176.527 24.95 175.579 25.342C174.665 25.734 173.897 26.2893 173.276 27.008C172.656 27.7267 172.182 28.576 171.855 29.556C171.561 30.5033 171.414 31.5487 171.414 32.692V47H167.249V21.667ZM194.624 12.014H198.789V25.097H198.887C199.573 23.6923 200.651 22.6797 202.121 22.059C203.591 21.4057 205.208 21.079 206.972 21.079C208.932 21.079 210.63 21.4383 212.068 22.157C213.538 22.8757 214.746 23.8557 215.694 25.097C216.674 26.3057 217.409 27.7103 217.899 29.311C218.389 30.9117 218.634 32.6103 218.634 34.407C218.634 36.2037 218.389 37.9023 217.899 39.503C217.441 41.1037 216.723 42.5083 215.743 43.717C214.795 44.893 213.587 45.824 212.117 46.51C210.679 47.196 208.997 47.539 207.07 47.539C206.449 47.539 205.747 47.4737 204.963 47.343C204.211 47.2123 203.46 47 202.709 46.706C201.957 46.412 201.239 46.02 200.553 45.53C199.899 45.0073 199.344 44.3703 198.887 43.619H198.789V47H194.624V12.014ZM214.224 34.113C214.224 32.937 214.06 31.7937 213.734 30.683C213.44 29.5397 212.966 28.527 212.313 27.645C211.692 26.763 210.875 26.0607 209.863 25.538C208.883 25.0153 207.723 24.754 206.384 24.754C204.979 24.754 203.787 25.0317 202.807 25.587C201.827 26.1423 201.026 26.8773 200.406 27.792C199.785 28.674 199.328 29.6867 199.034 30.83C198.772 31.9733 198.642 33.133 198.642 34.309C198.642 35.5503 198.789 36.759 199.083 37.935C199.377 39.0783 199.834 40.091 200.455 40.973C201.108 41.855 201.941 42.5737 202.954 43.129C203.966 43.6517 205.191 43.913 206.629 43.913C208.066 43.913 209.258 43.6353 210.206 43.08C211.186 42.5247 211.97 41.7897 212.558 40.875C213.146 39.9603 213.57 38.915 213.832 37.739C214.093 36.563 214.224 35.3543 214.224 34.113ZM244.495 47H240.575V42.982H240.477C239.595 44.55 238.468 45.7097 237.096 46.461C235.724 47.1797 234.107 47.539 232.245 47.539C230.579 47.539 229.19 47.3267 228.08 46.902C226.969 46.4447 226.071 45.8077 225.385 44.991C224.699 44.1743 224.209 43.2107 223.915 42.1C223.653 40.9567 223.523 39.699 223.523 38.327V21.667H227.688V38.817C227.688 40.385 228.145 41.6263 229.06 42.541C229.974 43.4557 231.232 43.913 232.833 43.913C234.107 43.913 235.201 43.717 236.116 43.325C237.063 42.933 237.847 42.3777 238.468 41.659C239.088 40.9403 239.546 40.1073 239.84 39.16C240.166 38.18 240.33 37.1183 240.33 35.975V21.667H244.495V47ZM272.604 44.844C272.604 48.9927 271.657 52.096 269.762 54.154C267.868 56.212 264.895 57.241 260.844 57.241C259.668 57.241 258.46 57.1103 257.218 56.849C256.01 56.5877 254.899 56.163 253.886 55.575C252.906 54.987 252.09 54.2193 251.436 53.272C250.783 52.3247 250.424 51.165 250.358 49.793H254.523C254.556 50.5443 254.785 51.1813 255.209 51.704C255.667 52.2267 256.206 52.6513 256.826 52.978C257.48 53.3047 258.182 53.5333 258.933 53.664C259.685 53.8273 260.403 53.909 261.089 53.909C262.461 53.909 263.621 53.664 264.568 53.174C265.516 52.7167 266.3 52.0633 266.92 51.214C267.541 50.3973 267.982 49.401 268.243 48.225C268.537 47.049 268.684 45.7587 268.684 44.354V42.688H268.586C267.868 44.256 266.773 45.4157 265.303 46.167C263.866 46.8857 262.331 47.245 260.697 47.245C258.803 47.245 257.153 46.902 255.748 46.216C254.344 45.53 253.168 44.6153 252.22 43.472C251.273 42.296 250.554 40.9403 250.064 39.405C249.607 37.837 249.378 36.1873 249.378 34.456C249.378 32.9533 249.574 31.418 249.966 29.85C250.358 28.2493 251.012 26.812 251.926 25.538C252.841 24.2313 254.05 23.1697 255.552 22.353C257.055 21.5037 258.901 21.079 261.089 21.079C262.69 21.079 264.16 21.4383 265.499 22.157C266.839 22.843 267.884 23.8883 268.635 25.293H268.684V21.667H272.604V44.844ZM260.942 43.619C262.314 43.619 263.474 43.3413 264.421 42.786C265.401 42.198 266.185 41.4467 266.773 40.532C267.361 39.5847 267.786 38.523 268.047 37.347C268.341 36.171 268.488 34.995 268.488 33.819C268.488 32.7083 268.358 31.614 268.096 30.536C267.835 29.458 267.41 28.4943 266.822 27.645C266.267 26.763 265.532 26.0607 264.617 25.538C263.703 25.0153 262.592 24.754 261.285 24.754C259.946 24.754 258.803 25.0153 257.855 25.538C256.908 26.028 256.124 26.6977 255.503 27.547C254.915 28.3963 254.474 29.3763 254.18 30.487C253.919 31.5977 253.788 32.7573 253.788 33.966C253.788 35.1093 253.903 36.2527 254.131 37.396C254.36 38.5393 254.752 39.5847 255.307 40.532C255.863 41.4467 256.598 42.198 257.512 42.786C258.427 43.3413 259.57 43.619 260.942 43.619Z" fill="black"/>
<path fill-rule="evenodd" clip-rule="evenodd" d="M35.1158 8C38.9946 8 42.1389 11.1444 42.1389 15.0231C42.1389 18.5333 39.5638 21.4421 36.1996 21.9632C39.5638 22.4843 42.1389 25.393 42.1389 28.9032C42.1389 32.782 38.9946 35.9264 35.1158 35.9264H17.0834V22.0463V21.8801V8H35.1158Z" fill="#D79000"/>
<path d="M0 35.9028C0 28.6694 5.86383 22.8055 13.0972 22.8055H30.1806V49H13.0972C5.86384 49 0 43.1362 0 35.9028V35.9028Z" fill="#7C4DC3"/>
<rect x="17.0834" y="22.8055" width="13.0972" height="13.0972" fill="#73358D"/>
</svg>
